# xmcd
#
# Track frame offsets: 
#        150
#        18957
#        33640
#        49946
#        68222
#        85875
#        102224
#        120618
#        137286
#        153521
#        171858
#        186733
#
# Disc length: 2738 seconds
#
# Revision: 0
# Processed by: cddbd v1.5.2PL0 Copyright (c) Steve Scherf et al.
# Submitted via: ExactAudioCopy v1.0b1
#
DISCID=a10ab00c
DTITLE=Vagetoz - Kuatkan Aku
DYEAR=2008
DGENRE=Pop
TTITLE0=Kuatkan Aku
TTITLE1=Rinduku CintaMu (Ikhlas)
TTITLE2=PadaMu Ya Allah
TTITLE3=Taubatku
TTITLE4=Hanya Sementara
TTITLE5=Sujud Syukur
TTITLE6=Menuju Kemenangan
TTITLE7=Terima Kasih
TTITLE8=PadaMu Ya Allah (karaoke)
TTITLE9=Taubatku (karaoke)
TTITLE10=Rinduku CintaMu (Ikhlas) (karaoke)
TTITLE11=Kuatkan Aku (karaoke)
EXTD=
EXTT0=
EXTT1=
EXTT2=
EXTT3=
EXTT4=
EXTT5=
EXTT6=
EXTT7=
EXTT8=
EXTT9=
EXTT10=
EXTT11=
PLAYORDER=
